<?xml version="1.0" encoding="utf-8"?>
<!-- Generator: Adobe Illustrator 16.0.0, SVG Export Plug-In . SVG Version: 6.00 Build 0)  -->
<!DOCTYPE svg PUBLIC "-//W3C//DTD SVG 1.1//EN" "http://www.w3.org/Graphics/SVG/1.1/DTD/svg11.dtd">
<svg version="1.1" id="Layer_1" xmlns="http://www.w3.org/2000/svg" xmlns:xlink="http://www.w3.org/1999/xlink" x="0px" y="0px"
	 width="793.188px" height="278.014px" viewBox="0 0 793.188 278.014" enable-background="new 0 0 793.188 278.014"
	 xml:space="preserve">
<g>
	<defs>
		<rect id="SVGID_1_" width="793.188" height="278.014"/>
	</defs>
	<clipPath id="SVGID_2_">
		<use xlink:href="#SVGID_1_"  overflow="visible"/>
	</clipPath>
	<path clip-path="url(#SVGID_2_)" d="M120.52,83.394c0.001-12.851-10.417-23.269-23.271-23.269
		C84.396,60.122,73.975,70.54,73.975,83.394c0,12.857,10.42,23.272,23.273,23.276C110.102,106.666,120.52,96.248,120.52,83.394
		 M135.945,83.443c0.001,21.332-17.293,38.625-38.625,38.621c-19.336,0.003-35.309-14.224-38.135-32.77l-6.691-0.003v24.969
		c-0.001,5.432-3.478,8.478-8.149,8.475c-4.674,0.003-8.149-3.04-8.151-8.475l0.002-54.547h-6.411c-5.216,0-7.391-3.805-7.391-7.498
		c0-3.802,2.717-7.498,7.388-7.501l15.431,0.003c4.672,0,7.281,3.37,7.281,7.716l-0.001,24.289l6.826,0.003
		C62.502,58.6,78.287,44.819,97.319,44.819C118.651,44.819,135.946,62.111,135.945,83.443 M160.506,80.252
		C160.506,35.928,124.573,0,80.254,0C35.929,0,0,35.928,0,80.252c0,44.327,35.931,80.255,80.254,80.252
		c11.048,0,21.575-2.234,31.154-6.273l0.662,9.359c0,0,0.34,4.775,4.468,2.343l12.258-7.221c0,0,4.128-2.432,0.113-5.042
		l-7.206-4.689C144.957,134.928,160.504,109.405,160.506,80.252"/>
	<path clip-path="url(#SVGID_2_)" d="M499.262,199.172l82.631-13.41c0,0-3.354-34.067-38.506-34.067
		C508.237,151.694,497.963,181.863,499.262,199.172 M174.237,153.82c-5.784,0-10.472-5.2-10.472-11.61
		c0-6.409,4.688-11.608,10.472-11.608h101.825v-14.918c0,0,0.689-34.539,37.703-34.539l27.973-0.076
		c5.783,0,10.472,5.198,10.472,11.608c0,6.411-4.689,11.61-10.472,11.61h-23.569c0,0-16.237,0.251-16.237,18.966v7.292l49.966-0.099
		c5.784,0,10.473,5.2,10.473,11.608v81.781c0,0-0.171,28.348,31.339,28.348c0,0,36.12-0.547,36.12-41.414l-0.012-68.621
		c0-6.24,5.608-11.301,12.522-11.301c6.922,0,12.523,5.061,12.523,11.301v65.177l18.648-2.752c0,0-2.063-32.061,19.265-54.076
		c21.327-22.017,55.315-23.944,83.659-11.836c28.345,12.11,29.979,50.259,29.787,55.882c-0.168,4.662-3.601,8.566-8.438,9.564
		l-96.753,16.15c0,0,0.277,31.924,44.721,31.924s97.969,0.137,97.969,0.137l-0.073-159.983c0-6.237,5.608-11.298,12.518-11.298
		c6.922,0,12.525,5.061,12.525,11.298l-0.201,159.846l114.771,0.084c5.479,0,9.927,4.928,9.927,10.996
		c0,6.076-4.448,10.996-9.927,10.996H545.614c0,0-56.828,2.828-69.898-49.873l-20.641,3.715l-0.211,35.793
		c0,5.422-4.861,9.812-10.874,9.812c-5.999,0-10.874-4.391-10.874-9.812V252.73c0,0-11.475,22.566-44.36,22.566
		s-52.011-25.455-52.011-51.875v-69.35h-34.813l-0.259,112.646c0,6.238-5.604,11.295-12.525,11.295
		c-6.911,0-12.521-5.057-12.521-11.295V154.072L174.237,153.82z"/>
	<path clip-path="url(#SVGID_2_)" fill="none" stroke="#000000" stroke-width="2" stroke-linecap="round" d="M124.663,165.55
		c18.428,10.283,17.948,26.089,10.285,40.458c-18.045,33.836-0.097,53.746,15.471,53.746"/>
</g>
</svg>
